<svg width="20" height="21" viewBox="0 0 20 21" fill="none" xmlns="http://www.w3.org/2000/svg">
<rect width="20" height="21" fill="#1E1E1E"/>
<rect x="-53.5" y="-45.5" width="1189" height="205" rx="4.5" stroke="#9747FF" stroke-dasharray="10 5"/>
<mask id="path-2-inside-1_5_16" fill="white">
<path d="M-34 -26H1116V47H-34V-26Z"/>
</mask>
<path d="M-34 -26H1116V47H-34V-26Z" fill="#1E1F23"/>
<path d="M1116 -26H1118V-28H1116V-26ZM1116 47V49H1118V47H1116ZM-34 -24H1116V-28H-34V-24ZM1114 -26V47H1118V-26H1114ZM1116 45H-34V49H1116V45Z" fill="#2E2F36" mask="url(#path-2-inside-1_5_16)"/>
<rect x="-5" y="-4.5" width="30" height="30" rx="15" fill="url(#paint0_linear_5_16)"/>
<rect x="-5" y="-4.5" width="30" height="30" rx="15" stroke="#27282F" stroke-width="2"/>
<path d="M17.5 7.375V13.625C17.5 13.9565 17.3683 14.2745 17.1339 14.5089C16.8995 14.7433 16.5815 14.875 16.25 14.875H10V18C10.0001 18.1237 9.9635 18.2446 9.89483 18.3475C9.82616 18.4504 9.72851 18.5305 9.61425 18.5779C9.49998 18.6252 9.37424 18.6376 9.25294 18.6135C9.13163 18.5893 9.02023 18.5297 8.93282 18.4422L1.43282 10.9422C1.37471 10.8841 1.32861 10.8152 1.29715 10.7393C1.2657 10.6635 1.24951 10.5821 1.24951 10.5C1.24951 10.4179 1.2657 10.3365 1.29715 10.2607C1.32861 10.1848 1.37471 10.1159 1.43282 10.0578L8.93282 2.55782C9.02023 2.47031 9.13163 2.4107 9.25294 2.38655C9.37424 2.36239 9.49998 2.37477 9.61425 2.42211C9.72851 2.46946 9.82616 2.54964 9.89483 2.65252C9.9635 2.75539 10.0001 2.87632 10 3V6.125H16.25C16.5815 6.125 16.8995 6.2567 17.1339 6.49112C17.3683 6.72554 17.5 7.04348 17.5 7.375Z" fill="#2E2F36"/>
<defs>
<linearGradient id="paint0_linear_5_16" x1="10" y1="-5.5" x2="10" y2="26.5" gradientUnits="userSpaceOnUse">
<stop stop-color="#AD2D14"/>
<stop offset="1" stop-color="#F42E07"/>
</linearGradient>
</defs>
</svg>
