<svg width="24" height="24" viewBox="0 0 24 24" fill="none" xmlns="http://www.w3.org/2000/svg">
<path d="M20.9999 18.1473V20.3571C20.9999 20.5276 20.8946 20.6912 20.7071 20.8117C20.5195 20.9323 20.2652 21 19.9999 21C19.7347 21 19.4804 20.9323 19.2928 20.8117C19.1053 20.6912 19 20.5276 19 20.3571V18.1473C19.0049 17.1915 18.5932 16.2539 17.8115 15.4408C17.0299 14.6277 15.9095 13.9716 14.5775 13.5469L8.52752 11.603C6.86257 11.0722 5.46225 10.2521 4.4853 9.23574C3.50834 8.21939 2.99382 7.04742 3.00006 5.85268V3.64286C3.00006 3.47236 3.10541 3.30885 3.29295 3.18829C3.48048 3.06773 3.73483 3 4.00005 3C4.26526 3 4.51962 3.06773 4.70715 3.18829C4.89469 3.30885 5.00004 3.47236 5.00004 3.64286V5.85268C4.99514 6.80852 5.40685 7.74613 6.1885 8.55924C6.97015 9.37234 8.09048 10.0284 9.42252 10.4531L15.4725 12.397C17.1374 12.9278 18.5377 13.7479 19.5147 14.7643C20.4917 15.7806 21.0062 16.9526 20.9999 18.1473ZM16 17.7857H5.02129C5.0694 17.3478 5.2051 16.9156 5.42504 16.5H14.5137C14.7789 16.5 15.0333 16.4323 15.2208 16.3117C15.4084 16.1912 15.5137 16.0276 15.5137 15.8571C15.5137 15.6866 15.4084 15.5231 15.2208 15.4026C15.0333 15.282 14.7789 15.2143 14.5137 15.2143H6.43253C6.93434 14.7479 7.55318 14.3384 8.26377 14.0025C8.36982 13.9525 8.45951 13.8896 8.52773 13.8174C8.59596 13.7451 8.64138 13.6649 8.6614 13.5814C8.68143 13.4979 8.67566 13.4126 8.64443 13.3305C8.6132 13.2484 8.55712 13.1711 8.4794 13.1029C8.40167 13.0347 8.30382 12.9771 8.19143 12.9332C8.07904 12.8894 7.95431 12.8602 7.82437 12.8473C7.69443 12.8344 7.56181 12.8381 7.4341 12.8582C7.30638 12.8783 7.18607 12.9143 7.08003 12.9643C5.81684 13.5629 4.78968 14.3437 4.08109 15.2438C3.3725 16.144 3.00224 17.1385 3.00006 18.1473V20.3571C3.00006 20.5276 3.10541 20.6912 3.29295 20.8117C3.48048 20.9323 3.73483 21 4.00005 21C4.26526 21 4.51962 20.9323 4.70715 20.8117C4.89469 20.6912 5.00004 20.5276 5.00004 20.3571V19.0714H16C16.2652 19.0714 16.5195 19.0037 16.7071 18.8831C16.8946 18.7626 17 18.5991 17 18.4286C17 18.2581 16.8946 18.0946 16.7071 17.974C16.5195 17.8534 16.2652 17.7857 16 17.7857ZM19.9999 3C19.7347 3 19.4804 3.06773 19.2928 3.18829C19.1053 3.30885 19 3.47236 19 3.64286V4.92857H8.00002C7.73481 4.92857 7.48046 4.9963 7.29292 5.11686C7.10539 5.23742 7.00003 5.40093 7.00003 5.57143C7.00003 5.74192 7.10539 5.90544 7.29292 6.026C7.48046 6.14656 7.73481 6.21429 8.00002 6.21429H18.9787C18.9306 6.65223 18.7949 7.08436 18.575 7.5H9.48627C9.22105 7.5 8.9667 7.56773 8.77916 7.68829C8.59163 7.80885 8.48627 7.97236 8.48627 8.14286C8.48627 8.31335 8.59163 8.47687 8.77916 8.59743C8.9667 8.71798 9.22105 8.78571 9.48627 8.78571H17.5675C17.0657 9.25205 16.4468 9.66155 15.7362 9.9975C15.6303 10.0475 15.5408 10.1104 15.4727 10.1826C15.4047 10.2548 15.3594 10.3349 15.3395 10.4184C15.3196 10.5018 15.3254 10.587 15.3567 10.669C15.388 10.751 15.4441 10.8282 15.5219 10.8963C15.6788 11.0338 15.9143 11.1255 16.1765 11.1513C16.3063 11.1641 16.4388 11.1604 16.5664 11.1403C16.6939 11.1201 16.8141 11.0841 16.92 11.0341C18.1828 10.4356 19.2098 9.65513 19.9183 8.75527C20.6269 7.85541 20.9974 6.86126 20.9999 5.85268V3.64286C20.9999 3.47236 20.8946 3.30885 20.7071 3.18829C20.5195 3.06773 20.2652 3 19.9999 3Z" fill="#F5F5F5"/>
</svg>
