<svg width="24" height="25" viewBox="0 0 24 25" fill="none" xmlns="http://www.w3.org/2000/svg">
<rect width="24" height="25" fill="#1E1E1E"/>
<g id="profile screen" clip-path="url(#clip0_0_1)">
<rect width="1512" height="1358" transform="translate(-1412 -665)" fill="url(#paint0_linear_0_1)"/>
<g id="profile">
<rect width="1512" height="1358" transform="translate(-1412 -665)" fill="#17181C"/>
<g id="main">
<g id="body">
<g id="content">
<g id="follower/posts">
<g id="post">
<rect x="-609" y="-22" width="648" height="207" rx="15" fill="#1E1F23"/>
<rect x="-609" y="-22" width="648" height="207" rx="15" stroke="#2E2F36" stroke-width="2"/>
<g id="Frame 8">
<g id="Frame 5">
<g id="more_horiz" clip-path="url(#clip1_0_1)">
<path id="Vector" d="M6 10.5C4.9 10.5 4 11.4 4 12.5C4 13.6 4.9 14.5 6 14.5C7.1 14.5 8 13.6 8 12.5C8 11.4 7.1 10.5 6 10.5ZM18 10.5C16.9 10.5 16 11.4 16 12.5C16 13.6 16.9 14.5 18 14.5C19.1 14.5 20 13.6 20 12.5C20 11.4 19.1 10.5 18 10.5ZM12 10.5C10.9 10.5 10 11.4 10 12.5C10 13.6 10.9 14.5 12 14.5C13.1 14.5 14 13.6 14 12.5C14 11.4 13.1 10.5 12 10.5Z" fill="#F5F5F5"/>
</g>
</g>
</g>
</g>
</g>
</g>
</g>
</g>
</g>
</g>
<defs>
<linearGradient id="paint0_linear_0_1" x1="756" y1="0" x2="756" y2="1358" gradientUnits="userSpaceOnUse">
<stop stop-color="#2E2F36"/>
<stop offset="1" stop-color="#17181C"/>
</linearGradient>
<clipPath id="clip0_0_1">
<rect width="1512" height="1358" fill="white" transform="translate(-1412 -665)"/>
</clipPath>
<clipPath id="clip1_0_1">
<rect width="24" height="24" fill="white" transform="translate(0 0.5)"/>
</clipPath>
</defs>
</svg>
