<svg width="24" height="24" viewBox="0 0 24 24" fill="none" xmlns="http://www.w3.org/2000/svg">
<path d="M18.2308 10.3636C18.2308 10.5806 18.1578 10.7887 18.028 10.9422C17.8982 11.0956 17.7221 11.1818 17.5385 11.1818H14.0769C13.8933 11.1818 13.7172 11.0956 13.5874 10.9422C13.4576 10.7887 13.3846 10.5806 13.3846 10.3636C13.3846 10.1466 13.4576 9.93853 13.5874 9.78509C13.7172 9.63166 13.8933 9.54545 14.0769 9.54545H17.5385C17.7221 9.54545 17.8982 9.63166 18.028 9.78509C18.1578 9.93853 18.2308 10.1466 18.2308 10.3636ZM17.5385 12.8182H14.0769C13.8933 12.8182 13.7172 12.9044 13.5874 13.0578C13.4576 13.2113 13.3846 13.4194 13.3846 13.6364C13.3846 13.8534 13.4576 14.0615 13.5874 14.2149C13.7172 14.3683 13.8933 14.4545 14.0769 14.4545H17.5385C17.7221 14.4545 17.8982 14.3683 18.028 14.2149C18.1578 14.0615 18.2308 13.8534 18.2308 13.6364C18.2308 13.4194 18.1578 13.2113 18.028 13.0578C17.8982 12.9044 17.7221 12.8182 17.5385 12.8182ZM21 4.63636V19.3636C21 19.7976 20.8541 20.2138 20.5945 20.5207C20.3348 20.8276 19.9826 21 19.6154 21H4.38462C4.01739 21 3.66521 20.8276 3.40554 20.5207C3.14588 20.2138 3 19.7976 3 19.3636V4.63636C3 4.20237 3.14588 3.78616 3.40554 3.47928C3.66521 3.1724 4.01739 3 4.38462 3H19.6154C19.9826 3 20.3348 3.1724 20.5945 3.47928C20.8541 3.78616 21 4.20237 21 4.63636ZM19.6154 19.3636V4.63636H4.38462V19.3636H19.6154ZM12.6698 15.8864C12.7157 16.0966 12.6891 16.3197 12.5958 16.5067C12.5024 16.6937 12.3501 16.8293 12.1722 16.8835C11.9943 16.9378 11.8055 16.9063 11.6473 16.796C11.489 16.6857 11.3744 16.5057 11.3285 16.2955C11.1009 15.2461 10.1983 14.4545 9.2299 14.4545C8.26154 14.4545 7.35981 15.2461 7.13135 16.2955C7.08544 16.5057 6.97076 16.6857 6.81253 16.796C6.65429 16.9063 6.46547 16.9378 6.2876 16.8835C6.10972 16.8293 5.95737 16.6937 5.86405 16.5067C5.77073 16.3197 5.7441 16.0966 5.79 15.8864C6.01465 14.8982 6.5457 14.046 7.2776 13.4993C6.88866 13.0424 6.62328 12.4593 6.5151 11.8239C6.40691 11.1885 6.46078 10.5295 6.66989 9.93036C6.87901 9.33121 7.23394 8.81893 7.68969 8.45846C8.14544 8.09798 8.6815 7.90555 9.2299 7.90555C9.77831 7.90555 10.3144 8.09798 10.7701 8.45846C11.2259 8.81893 11.5808 9.33121 11.7899 9.93036C11.999 10.5295 12.0529 11.1885 11.9447 11.8239C11.8365 12.4593 11.5711 13.0424 11.1822 13.4993C11.9149 14.0452 12.4464 14.8976 12.6707 15.8864H12.6698ZM9.23077 12.8182C9.50462 12.8182 9.77232 12.7222 10 12.5424C10.2277 12.3626 10.4052 12.107 10.51 11.808C10.6148 11.509 10.6422 11.18 10.5888 10.8626C10.5354 10.5452 10.4035 10.2536 10.2098 10.0247C10.0162 9.79589 9.76948 9.64004 9.50089 9.5769C9.23231 9.51376 8.95391 9.54616 8.7009 9.67002C8.44789 9.79387 8.23165 10.0036 8.0795 10.2727C7.92736 10.5418 7.84615 10.8582 7.84615 11.1818C7.84615 11.6158 7.99203 12.032 8.2517 12.3389C8.51136 12.6458 8.86355 12.8182 9.23077 12.8182Z" fill="#F5F5F5"/>
</svg>
