<svg width="16" height="16" viewBox="0 0 16 16" fill="none" xmlns="http://www.w3.org/2000/svg">
<g id="Frame">
<path id="Vector" d="M4.81134 7.2714C4.64991 6.98094 4.39661 6.75231 4.09118 6.62139C3.78576 6.49047 3.44551 6.46467 3.12384 6.54805C2.80217 6.63143 2.51729 6.81927 2.31393 7.08207C2.11056 7.34487 2.00021 7.66777 2.00021 8.00007C2.00021 8.33237 2.11056 8.65526 2.31393 8.91806C2.51729 9.18087 2.80217 9.3687 3.12384 9.45208C3.44551 9.53546 3.78576 9.50966 4.09118 9.37874C4.39661 9.24782 4.64991 9.01919 4.81134 8.72873M4.81134 7.2714C4.93134 7.4874 5 7.7354 5 8.00007C5 8.26473 4.93134 8.5134 4.81134 8.72873M4.81134 7.2714L11.1887 3.72873M4.81134 8.72873L11.1887 12.2714M11.1887 3.72873C11.2822 3.90483 11.4098 4.06051 11.5642 4.18669C11.7186 4.31286 11.8966 4.407 12.0877 4.46358C12.2789 4.52017 12.4795 4.53808 12.6776 4.51626C12.8758 4.49444 13.0677 4.43333 13.242 4.33651C13.4162 4.23968 13.5695 4.10908 13.6927 3.95234C13.8159 3.7956 13.9067 3.61587 13.9596 3.42366C14.0126 3.23144 14.0267 3.03059 14.0011 2.83286C13.9755 2.63513 13.9108 2.44449 13.8107 2.27207C13.6134 1.93229 13.2907 1.68349 12.9119 1.57914C12.5331 1.47479 12.1285 1.52323 11.785 1.71404C11.4416 1.90484 11.1867 2.22279 11.0752 2.59953C10.9637 2.97627 11.0044 3.38172 11.1887 3.72873ZM11.1887 12.2714C11.093 12.4437 11.0322 12.6331 11.0097 12.8288C10.9872 13.0246 11.0035 13.2228 11.0576 13.4123C11.1117 13.6018 11.2027 13.7787 11.3252 13.933C11.4477 14.0874 11.5994 14.216 11.7717 14.3117C11.9439 14.4074 12.1333 14.4682 12.3291 14.4907C12.5248 14.5132 12.7231 14.4969 12.9126 14.4428C13.102 14.3887 13.279 14.2977 13.4333 14.1752C13.5876 14.0527 13.7163 13.901 13.812 13.7287C14.0053 13.3809 14.0524 12.9705 13.9431 12.5878C13.8337 12.2052 13.5769 11.8817 13.229 11.6884C12.8811 11.4951 12.4707 11.448 12.0881 11.5573C11.7055 11.6667 11.3819 11.9235 11.1887 12.2714Z" stroke="#A1A3A7" stroke-width="1.0625" stroke-linecap="round" stroke-linejoin="round"/>
</g>
</svg>
