<svg width="32" height="32" viewBox="0 0 32 32" fill="none" xmlns="http://www.w3.org/2000/svg">
<path d="M28.8526 27.4179C26.9507 23.9986 24.0198 21.5468 20.5993 20.3845C22.2912 19.3371 23.6057 17.7411 24.341 15.8416C25.0762 13.9421 25.1915 11.8441 24.6692 9.8699C24.1469 7.89565 23.0158 6.15428 21.4497 4.91321C19.8836 3.67214 17.969 3 16 3C14.031 3 12.1164 3.67214 10.5503 4.91321C8.98417 6.15428 7.85311 7.89565 7.33079 9.8699C6.80848 11.8441 6.92379 13.9421 7.65903 15.8416C8.39427 17.7411 9.70878 19.3371 11.4007 20.3845C7.98024 21.5455 5.04932 23.9973 3.1474 27.4179C3.07766 27.5362 3.03139 27.6678 3.01135 27.805C2.9913 27.9421 2.99787 28.0821 3.03067 28.2165C3.06347 28.351 3.12185 28.4773 3.20234 28.5879C3.28283 28.6986 3.38382 28.7913 3.49934 28.8607C3.61487 28.9301 3.74258 28.9747 3.87496 28.992C4.00734 29.0092 4.14169 28.9987 4.2701 28.961C4.3985 28.9234 4.51836 28.8594 4.62259 28.7728C4.72682 28.6862 4.81332 28.5788 4.87698 28.4569C7.22971 24.2285 11.3882 21.7039 16 21.7039C20.6118 21.7039 24.7703 24.2285 27.123 28.4569C27.1867 28.5788 27.2732 28.6862 27.3774 28.7728C27.4816 28.8594 27.6015 28.9234 27.7299 28.961C27.8583 28.9987 27.9927 29.0092 28.125 28.992C28.2574 28.9747 28.3851 28.9301 28.5007 28.8607C28.6162 28.7913 28.7172 28.6986 28.7977 28.5879C28.8782 28.4773 28.9365 28.351 28.9693 28.2165C29.0021 28.0821 29.0087 27.9421 28.9887 27.805C28.9686 27.6678 28.9223 27.5362 28.8526 27.4179ZM9.00675 12.3537C9.00675 10.9154 9.4169 9.50935 10.1853 8.31342C10.9538 7.11748 12.0459 6.18536 13.3238 5.63493C14.6016 5.0845 16.0078 4.94049 17.3643 5.22109C18.7209 5.5017 19.967 6.19432 20.945 7.21139C21.923 8.22845 22.589 9.52426 22.8589 10.935C23.1287 12.3457 22.9902 13.8079 22.4609 15.1368C21.9316 16.4656 21.0353 17.6014 19.8852 18.4005C18.7352 19.1996 17.3831 19.6261 16 19.6261C14.1459 19.6241 12.3683 18.8572 11.0572 17.4938C9.74616 16.1304 9.00873 14.2819 9.00675 12.3537Z" fill="white"/>
</svg>
